<svg width="82" height="20" viewBox="0 0 82 20" fill="none" xmlns="http://www.w3.org/2000/svg">
<path d="M7.77273 7.27273C7.70455 6.69697 7.42803 6.25 6.94318 5.93182C6.45833 5.61364 5.86364 5.45455 5.15909 5.45455C4.64394 5.45455 4.19318 5.53788 3.80682 5.70455C3.42424 5.87121 3.125 6.10038 2.90909 6.39205C2.69697 6.68371 2.59091 7.01515 2.59091 7.38636C2.59091 7.69697 2.66477 7.96401 2.8125 8.1875C2.96402 8.4072 3.1572 8.59091 3.39205 8.73864C3.62689 8.88258 3.87311 9.00189 4.13068 9.09659C4.38826 9.1875 4.625 9.26136 4.84091 9.31818L6.02273 9.63636C6.32576 9.71591 6.66288 9.82576 7.03409 9.96591C7.40909 10.1061 7.76705 10.2973 8.10795 10.5398C8.45265 10.7784 8.73674 11.0852 8.96023 11.4602C9.18371 11.8352 9.29545 12.2955 9.29545 12.8409C9.29545 13.4697 9.13068 14.0379 8.80114 14.5455C8.47538 15.053 7.99811 15.4564 7.36932 15.7557C6.74432 16.0549 5.98485 16.2045 5.09091 16.2045C4.25758 16.2045 3.53598 16.0701 2.92614 15.8011C2.32008 15.5322 1.8428 15.1572 1.49432 14.6761C1.14962 14.1951 0.954545 13.6364 0.909091 13H2.36364C2.40152 13.4394 2.54924 13.803 2.80682 14.0909C3.06818 14.375 3.39773 14.5871 3.79545 14.7273C4.19697 14.8636 4.62879 14.9318 5.09091 14.9318C5.62879 14.9318 6.11174 14.8447 6.53977 14.6705C6.9678 14.4924 7.30682 14.2462 7.55682 13.9318C7.80682 13.6136 7.93182 13.2424 7.93182 12.8182C7.93182 12.4318 7.82386 12.1174 7.60795 11.875C7.39205 11.6326 7.10795 11.4356 6.75568 11.2841C6.40341 11.1326 6.02273 11 5.61364 10.8864L4.18182 10.4773C3.27273 10.2159 2.55303 9.8428 2.02273 9.35795C1.49242 8.87311 1.22727 8.23864 1.22727 7.45455C1.22727 6.80303 1.40341 6.23485 1.75568 5.75C2.11174 5.26136 2.58902 4.88258 3.1875 4.61364C3.78977 4.34091 4.46212 4.20455 5.20455 4.20455C5.95455 4.20455 6.62121 4.33901 7.20455 4.60795C7.78788 4.87311 8.25 5.23674 8.59091 5.69886C8.93561 6.16098 9.11742 6.68561 9.13636 7.27273H7.77273ZM11.4304 19.2727V7.27273H12.7259V8.65909H12.8849C12.9834 8.50758 13.1198 8.31439 13.294 8.07955C13.4721 7.84091 13.7259 7.62879 14.0554 7.44318C14.3887 7.25379 14.8395 7.15909 15.4077 7.15909C16.1425 7.15909 16.7902 7.3428 17.3509 7.71023C17.9115 8.07765 18.349 8.59848 18.6634 9.27273C18.9777 9.94697 19.1349 10.7424 19.1349 11.6591C19.1349 12.5833 18.9777 13.3845 18.6634 14.0625C18.349 14.7367 17.9134 15.2595 17.3565 15.6307C16.7997 15.9981 16.1577 16.1818 15.4304 16.1818C14.8698 16.1818 14.4209 16.089 14.0838 15.9034C13.7467 15.714 13.4872 15.5 13.3054 15.2614C13.1236 15.0189 12.9834 14.8182 12.8849 14.6591H12.7713V19.2727H11.4304ZM12.7486 11.6364C12.7486 12.2955 12.8452 12.8769 13.0384 13.3807C13.2315 13.8807 13.5137 14.2727 13.8849 14.5568C14.2562 14.8371 14.7107 14.9773 15.2486 14.9773C15.8092 14.9773 16.277 14.8295 16.652 14.5341C17.0308 14.2348 17.3149 13.8333 17.5043 13.3295C17.6974 12.822 17.794 12.2576 17.794 11.6364C17.794 11.0227 17.6993 10.4697 17.5099 9.97727C17.3243 9.48106 17.0421 9.08902 16.6634 8.80114C16.2884 8.50947 15.8168 8.36364 15.2486 8.36364C14.7031 8.36364 14.2448 8.50189 13.8736 8.77841C13.5024 9.05114 13.2221 9.43371 13.0327 9.92614C12.8433 10.4148 12.7486 10.9848 12.7486 11.6364ZM24.7259 16.1818C23.938 16.1818 23.2467 15.9943 22.652 15.6193C22.0611 15.2443 21.599 14.7197 21.2656 14.0455C20.9361 13.3712 20.7713 12.5833 20.7713 11.6818C20.7713 10.7727 20.9361 9.97917 21.2656 9.30114C21.599 8.62311 22.0611 8.09659 22.652 7.72159C23.2467 7.34659 23.938 7.15909 24.7259 7.15909C25.5137 7.15909 26.2031 7.34659 26.794 7.72159C27.3887 8.09659 27.8509 8.62311 28.1804 9.30114C28.5137 9.97917 28.6804 10.7727 28.6804 11.6818C28.6804 12.5833 28.5137 13.3712 28.1804 14.0455C27.8509 14.7197 27.3887 15.2443 26.794 15.6193C26.2031 15.9943 25.5137 16.1818 24.7259 16.1818ZM24.7259 14.9773C25.3243 14.9773 25.8168 14.8239 26.2031 14.517C26.5895 14.2102 26.8755 13.8068 27.0611 13.3068C27.2467 12.8068 27.3395 12.2652 27.3395 11.6818C27.3395 11.0985 27.2467 10.5549 27.0611 10.0511C26.8755 9.54735 26.5895 9.14015 26.2031 8.82955C25.8168 8.51894 25.3243 8.36364 24.7259 8.36364C24.1274 8.36364 23.6349 8.51894 23.2486 8.82955C22.8622 9.14015 22.5762 9.54735 22.3906 10.0511C22.205 10.5549 22.1122 11.0985 22.1122 11.6818C22.1122 12.2652 22.205 12.8068 22.3906 13.3068C22.5762 13.8068 22.8622 14.2102 23.2486 14.517C23.6349 14.8239 24.1274 14.9773 24.7259 14.9773ZM34.0227 16.1818C33.2955 16.1818 32.6534 15.9981 32.0966 15.6307C31.5398 15.2595 31.1042 14.7367 30.7898 14.0625C30.4754 13.3845 30.3182 12.5833 30.3182 11.6591C30.3182 10.7424 30.4754 9.94697 30.7898 9.27273C31.1042 8.59848 31.5417 8.07765 32.1023 7.71023C32.6629 7.3428 33.3106 7.15909 34.0455 7.15909C34.6136 7.15909 35.0625 7.25379 35.392 7.44318C35.7254 7.62879 35.9792 7.84091 36.1534 8.07955C36.3314 8.31439 36.4697 8.50758 36.5682 8.65909H36.6818V4.36364H38.0227V16H36.7273V14.6591H36.5682C36.4697 14.8182 36.3295 15.0189 36.1477 15.2614C35.9659 15.5 35.7064 15.714 35.3693 15.9034C35.0322 16.089 34.5833 16.1818 34.0227 16.1818ZM34.2045 14.9773C34.7424 14.9773 35.197 14.8371 35.5682 14.5568C35.9394 14.2727 36.2216 13.8807 36.4148 13.3807C36.608 12.8769 36.7045 12.2955 36.7045 11.6364C36.7045 10.9848 36.6098 10.4148 36.4205 9.92614C36.2311 9.43371 35.9508 9.05114 35.5795 8.77841C35.2083 8.50189 34.75 8.36364 34.2045 8.36364C33.6364 8.36364 33.1629 8.50947 32.7841 8.80114C32.4091 9.08902 32.1269 9.48106 31.9375 9.97727C31.7519 10.4697 31.6591 11.0227 31.6591 11.6364C31.6591 12.2576 31.7538 12.822 31.9432 13.3295C32.1364 13.8333 32.4205 14.2348 32.7955 14.5341C33.1742 14.8295 33.6439 14.9773 34.2045 14.9773ZM46.8466 9.22727L45.642 9.56818C45.5663 9.36742 45.4545 9.17235 45.3068 8.98295C45.1629 8.78977 44.9659 8.63068 44.7159 8.50568C44.4659 8.38068 44.1458 8.31818 43.7557 8.31818C43.2216 8.31818 42.7765 8.44129 42.4205 8.6875C42.0682 8.92992 41.892 9.23864 41.892 9.61364C41.892 9.94697 42.0133 10.2102 42.2557 10.4034C42.4981 10.5966 42.8769 10.7576 43.392 10.8864L44.6875 11.2045C45.4678 11.3939 46.0492 11.6837 46.4318 12.0739C46.8144 12.4602 47.0057 12.9583 47.0057 13.5682C47.0057 14.0682 46.8617 14.5152 46.5739 14.9091C46.2898 15.303 45.892 15.6136 45.3807 15.8409C44.8693 16.0682 44.2746 16.1818 43.5966 16.1818C42.7064 16.1818 41.9697 15.9886 41.3864 15.6023C40.803 15.2159 40.4337 14.6515 40.2784 13.9091L41.5511 13.5909C41.6723 14.0606 41.9015 14.4129 42.2386 14.6477C42.5795 14.8826 43.0246 15 43.5739 15C44.1989 15 44.6951 14.8674 45.0625 14.6023C45.4337 14.3333 45.6193 14.0114 45.6193 13.6364C45.6193 13.3333 45.5133 13.0795 45.3011 12.875C45.089 12.6667 44.7633 12.5114 44.3239 12.4091L42.8693 12.0682C42.0701 11.8788 41.483 11.5852 41.108 11.1875C40.7367 10.786 40.5511 10.2841 40.5511 9.68182C40.5511 9.18939 40.6894 8.75379 40.9659 8.375C41.2462 7.99621 41.6269 7.69886 42.108 7.48295C42.5928 7.26705 43.142 7.15909 43.7557 7.15909C44.6193 7.15909 45.2973 7.34848 45.7898 7.72727C46.286 8.10606 46.6383 8.60606 46.8466 9.22727ZM57.5923 4.36364V16H56.1832V5.84091H56.1151L53.2741 7.72727V6.29545L56.1832 4.36364H57.5923ZM64.7344 16.1591C63.8783 16.1591 63.1491 15.9261 62.5469 15.4602C61.9446 14.9905 61.4844 14.3106 61.1662 13.4205C60.848 12.5265 60.6889 11.447 60.6889 10.1818C60.6889 8.92424 60.848 7.85038 61.1662 6.96023C61.4882 6.06629 61.9503 5.38447 62.5526 4.91477C63.1586 4.44129 63.8859 4.20455 64.7344 4.20455C65.5829 4.20455 66.3082 4.44129 66.9105 4.91477C67.5166 5.38447 67.9787 6.06629 68.2969 6.96023C68.6188 7.85038 68.7798 8.92424 68.7798 10.1818C68.7798 11.447 68.6207 12.5265 68.3026 13.4205C67.9844 14.3106 67.5241 14.9905 66.9219 15.4602C66.3196 15.9261 65.5904 16.1591 64.7344 16.1591ZM64.7344 14.9091C65.5829 14.9091 66.242 14.5 66.7116 13.6818C67.1813 12.8636 67.4162 11.697 67.4162 10.1818C67.4162 9.17424 67.3082 8.31629 67.0923 7.60795C66.8802 6.89962 66.5734 6.35985 66.1719 5.98864C65.7741 5.61742 65.295 5.43182 64.7344 5.43182C63.8935 5.43182 63.2363 5.84659 62.7628 6.67614C62.2893 7.50189 62.0526 8.67045 62.0526 10.1818C62.0526 11.1894 62.1586 12.0455 62.3707 12.75C62.5829 13.4545 62.8878 13.9905 63.2855 14.358C63.687 14.7254 64.17 14.9091 64.7344 14.9091Z" fill="white"/>
<path d="M69.3864 2.80682V2.18182H73.75V2.80682H71.9205V8H71.2159V2.80682H69.3864ZM74.8374 2.18182H75.6783L77.6555 7.01136H77.7237L79.701 2.18182H80.5419V8H79.8828V3.57955H79.826L78.0078 8H77.3714L75.5533 3.57955H75.4964V8H74.8374V2.18182Z" fill="white"/>
</svg>
