<svg width="20" height="23" viewBox="0 0 20 23" fill="none" xmlns="http://www.w3.org/2000/svg">
<path d="M15.1189 17.5C17.4623 15.9151 19 13.2779 19 10.285C19 5.4333 14.9704 1.5 10 1.5C5.02958 1.5 1 5.4333 1 10.285C1 13.2779 2.53771 15.9151 4.88113 17.5M6.35967 13.5C5.51875 12.65 5 11.5086 5 10.2505C5 7.62711 7.23881 5.5 10 5.5C12.7612 5.5 15 7.62711 15 10.2505C15 11.5095 14.4813 12.65 13.6403 13.5M10 21.5C8.8954 21.5 8 20.6046 8 19.5V17.5C8 16.3954 8.8954 15.5 10 15.5C11.1046 15.5 12 16.3954 12 17.5V19.5C12 20.6046 11.1046 21.5 10 21.5ZM11 10.5C11 11.0523 10.5523 11.5 10 11.5C9.4477 11.5 9 11.0523 9 10.5C9 9.9477 9.4477 9.5 10 9.5C10.5523 9.5 11 9.9477 11 10.5Z" stroke="#929292" stroke-width="2" stroke-linecap="round" stroke-linejoin="round"/>
</svg>
