<svg width="22" height="23" viewBox="0 0 22 23" fill="none" xmlns="http://www.w3.org/2000/svg">
<path d="M14.5455 9.42543C14.9195 8.76103 15.2313 8.16151 15.4236 7.70521C16.3573 5.48947 15.434 2.94077 13.1769 1.90112C10.9199 0.86148 8.65341 1.9395 7.65871 4.02093C5.75657 2.7157 3.21918 2.90739 1.81989 4.94424C0.420591 6.98108 0.859751 9.642 2.77629 11.094C3.6461 11.753 5.36636 12.7242 6.98596 13.5884M15.2972 11.2499C14.8751 8.982 12.9454 7.32334 10.5156 7.77415C8.08592 8.22497 6.51488 10.4171 6.84335 12.799C7.10725 14.7127 8.56392 19.2027 9.1264 20.894C9.2032 21.1248 9.2415 21.2402 9.3175 21.3206C9.3837 21.3907 9.4717 21.4416 9.5655 21.4638C9.6732 21.4894 9.7923 21.4649 10.0306 21.416C11.7765 21.0575 16.3933 20.074 18.1826 19.3457C20.4096 18.4392 21.5589 15.9841 20.6981 13.653C19.8372 11.3219 17.4723 10.4815 15.2972 11.2499Z" stroke="#929292" stroke-width="2" stroke-linecap="round" stroke-linejoin="round"/>
</svg>
